<?xml version="1.0" standalone="no"?>
<!DOCTYPE svg PUBLIC "-//W3C//DTD SVG 20010904//EN"
 "http://www.w3.org/TR/2001/REC-SVG-20010904/DTD/svg10.dtd">
<svg version="1.0" xmlns="http://www.w3.org/2000/svg"
 width="525.000000pt" height="525.000000pt" viewBox="0 0 525.000000 525.000000"
 preserveAspectRatio="xMidYMid meet">
<metadata>
Created by potrace 1.14, written by Peter Selinger 2001-2017
</metadata>
<g transform="translate(0.000000,525.000000) scale(0.100000,-0.100000)"
fill="#000000" stroke="none">
<path d="M1065 5236 c-416 -70 -750 -314 -934 -682 -90 -180 -126 -338 -126
-554 0 -111 5 -179 18 -240 55 -259 162 -457 346 -640 183 -182 371 -285 631
-346 67 -16 151 -18 788 -21 l713 -4 -4 713 c-3 637 -5 721 -21 788 -61 261
-165 450 -345 631 -185 185 -381 291 -636 344 -107 23 -327 28 -430 11z"/>
<path d="M3815 5236 c-473 -79 -853 -398 -999 -836 -61 -184 -59 -162 -63
-938 l-4 -713 713 4 c637 3 721 5 788 21 262 61 449 164 630 345 186 186 292
383 347 641 13 61 18 129 18 240 0 111 -5 179 -18 240 -55 258 -162 456 -346
641 -185 185 -381 291 -636 344 -107 23 -327 28 -430 11z"/>
<path d="M1065 2485 c-411 -65 -750 -313 -934 -681 -90 -180 -126 -338 -126
-554 0 -111 5 -179 18 -240 55 -259 162 -457 346 -640 186 -186 383 -292 641
-347 118 -25 362 -25 480 0 260 56 456 162 640 346 182 183 285 371 346 631
16 67 18 151 21 788 l4 712 -678 -1 c-497 -1 -699 -4 -758 -14z"/>
<path d="M2753 1788 c3 -637 5 -721 21 -788 61 -261 165 -450 345 -630 186
-186 383 -292 641 -347 118 -25 362 -25 480 0 260 56 456 162 640 346 186 186
292 383 347 641 25 118 25 362 0 480 -55 258 -162 456 -346 641 -183 182 -367
283 -631 345 -67 16 -151 18 -788 21 l-713 4 4 -713z"/>
</g>
</svg>
