<svg version="1.2" baseProfile="tiny-ps" xmlns="http://www.w3.org/2000/svg" viewBox="0 0 500 500" width="500" height="500">
  <title>clvr-clothing-logo</title>
  <style>
    tspan { white-space:pre }
    .shp0 { fill: #cccccc }
  </style>
  <g>
    <path class="shp0" d="M115 230C51.4 230 0 178.59 0 115C0 51.4 51.4 0 115 0C178.59 0 230 51.4 230 115C230 178.59 178.59 230 115 230Z" />
    <path class="shp0" d="M115 115L230 115L230 230L115 230L115 115Z" />
  </g>
  <g>
    <path class="shp0" d="M270 115C270 51.4 321.4 0 385 0C448.6 0 500 51.4 500 115C500 178.59 448.6 230 385 230C321.4 230 270 178.59 270 115Z" />
    <path class="shp0" d="M385 115L385 230L270 230L270 115L385 115Z" />
  </g>
  <g>
    <path class="shp0" d="M385 270C448.59 270 500 321.4 500 385C500 448.6 448.6 500 385 500C321.4 500 270 448.6 270 385C270 321.41 321.4 270 385 270Z" />
    <path class="shp0" d="M385 385L270 385L270 270L385 270L385 385Z" />
  </g>
  <g>
    <path class="shp0" d="M230 385C230 448.6 178.6 500 115 500C51.41 500 0 448.6 0 385C0 321.41 51.41 270 115 270C178.6 270 230 321.41 230 385Z" />
    <path class="shp0" d="M115 385L115 270L230 270L230 385L115 385Z" />
  </g>
</svg>
